HIERARCHY
ROOT Model_Hips
{
	OFFSET 0.000000 96.915077 0.000000
	CHANNELS 6 Xposition Yposition Zposition Xrotation Yrotation Zrotation
	JOINT Model_Spine
	{
		OFFSET 0.000000 11.137703 -1.289900
		CHANNELS 3 Xrotation Yrotation Zrotation
		JOINT Model_Spine1
		{
			OFFSET 0.000000 12.993942 -1.504922
			CHANNELS 3 Xrotation Yrotation Zrotation
			JOINT Model_Spine2
			{
				OFFSET 0.000000 14.850220 -1.719911
				CHANNELS 3 Xrotation Yrotation Zrotation
				JOINT Model_Neck
				{
					OFFSET 0.000000 16.706543 -1.934903
					CHANNELS 3 Xrotation Yrotation Zrotation
					JOINT Model_Head
					{
						OFFSET 0.000000 10.471298 2.002100
						CHANNELS 3 Xrotation Yrotation Zrotation
						JOINT Model_HeadTop_End
						{
							OFFSET 0.000000 20.842606 3.985100
							CHANNELS 3 Xrotation Yrotation Zrotation
							End Site
							{
								OFFSET 0.000000 21.220154 0.000000
							}
						}
					}
				}
				JOINT Model_LeftShoulder
				{
					OFFSET 7.008500 14.768600 -1.919946
					CHANNELS 3 Xrotation Yrotation Zrotation
					JOINT Model_LeftArm
					{
						OFFSET 14.126271 -3.718048 0.029937
						CHANNELS 3 Xrotation Yrotation Zrotation
						JOINT Model_LeftForeArm
						{
							OFFSET 28.282801 0.000000 0.000000
							CHANNELS 3 Xrotation Yrotation Zrotation
							JOINT Model_LeftHand
							{
								OFFSET 26.204689 0.000000 0.000000
								CHANNELS 3 Xrotation Yrotation Zrotation
								End Site
								{
									OFFSET 26.204704 0.000000 0.000000
								}
							}
						}
					}
				}
				JOINT Model_RightShoulder
				{
					OFFSET -7.008500 14.768555 -1.949840
					CHANNELS 3 Xrotation Yrotation Zrotation
					JOINT Model_RightArm
					{
						OFFSET -14.126281 -3.718018 -0.029932
						CHANNELS 3 Xrotation Yrotation Zrotation
						JOINT Model_RightForeArm
						{
							OFFSET -28.283798 0.000000 -0.000001
							CHANNELS 3 Xrotation Yrotation Zrotation
							JOINT Model_RightHand
							{
								OFFSET -26.204193 0.000000 -0.000001
								CHANNELS 3 Xrotation Yrotation Zrotation
								End Site
								{
									OFFSET -26.204208 0.000000 -0.000001
								}
							}
						}
					}
				}
			}
		}
	}
	JOINT Model_LeftUpLeg
	{
		OFFSET 8.327700 -6.193199 -0.402800
		CHANNELS 3 Xrotation Yrotation Zrotation
		JOINT Model_LeftLeg
		{
			OFFSET 0.735802 -42.108742 -0.610721
			CHANNELS 3 Xrotation Yrotation Zrotation
			JOINT Model_LeftFoot
			{
				OFFSET -0.735806 -36.833748 -0.172876
				CHANNELS 3 Xrotation Yrotation Zrotation
				JOINT Model_LeftToeBase
				{
					OFFSET -0.565857 -11.977769 16.297714
					CHANNELS 3 Xrotation Yrotation Zrotation
					JOINT Model_LeftToe_End
					{
						OFFSET -0.111712 -0.312793 7.857784
						CHANNELS 3 Xrotation Yrotation Zrotation
						End Site
						{
							OFFSET -0.111712 -0.312793 7.857784
						}
					}
				}
			}
		}
	}
	JOINT Model_RightUpLeg
	{
		OFFSET -8.327700 -6.193199 -0.516500
		CHANNELS 3 Xrotation Yrotation Zrotation
		JOINT Model_RightLeg
		{
			OFFSET -0.735785 -42.108738 -0.434061
			CHANNELS 3 Xrotation Yrotation Zrotation
			JOINT Model_RightFoot
			{
				OFFSET 0.735776 -36.833748 -0.021630
				CHANNELS 3 Xrotation Yrotation Zrotation
				JOINT Model_RightToeBase
				{
					OFFSET 0.565817 -11.977745 15.903093
					CHANNELS 3 Xrotation Yrotation Zrotation
					JOINT Model_RightToe_End
					{
						OFFSET 0.111702 -0.312791 7.811342
						CHANNELS 3 Xrotation Yrotation Zrotation
						End Site
						{
							OFFSET 0.111702 -0.312791 7.811342
						}
					}
				}
			}
		}
	}
}
MOTION
Frames: 15
Frame Time: 0.016667
3.473934 96.508675 86.068001 1.069112 0.775021 -1.581401 0.147934 0.110794 -0.117434 0.298205 0.254735 -0.442340 0.298201 0.254735 -0.442342 1.022915 0.080557 0.121645 1.022916 0.080556 0.121645 -0.000000 -0.000000 -0.000000 0.234860 -15.920893 -17.316377 3.358168 12.822841 -56.580949 18.055648 -29.834850 -0.149157 -0.000000 -0.000002 0.000000 1.627687 6.420124 17.351454 4.579434 -6.892294 63.299570 16.779307 28.231971 -7.875822 0.000001 0.000001 0.000001 -9.073715 8.874903 0.907645 21.523176 -11.265638 0.932746 -12.572621 -0.000102 4.388868 -5.096199 3.962866 -4.926211 -0.000000 0.000000 -0.000001 -19.476925 -7.301385 -1.432271 54.801090 -3.771999 0.276664 0.194751 1.722494 -10.977795 -24.753709 -7.386724 12.113456 -0.000001 0.000000 0.000001 
3.529650 96.785767 88.541939 1.265883 1.759340 -1.548018 0.148412 -0.125924 -0.063822 0.297678 -0.243274 -0.401585 0.297675 -0.243274 -0.401584 1.144836 0.101224 0.165899 1.144834 0.101224 0.165898 0.000000 0.000000 0.000000 0.313529 -15.976412 -16.571514 2.664352 11.472390 -56.081508 18.101540 -32.035063 -0.358260 -0.000002 -0.000001 0.000001 1.692425 5.874420 18.005950 4.006630 -7.645900 62.837535 15.891711 23.805999 -5.867149 -0.000001 -0.000002 -0.000001 -6.286020 9.179809 0.784568 18.764968 -12.607185 0.893146 -12.345069 0.029538 4.391235 -5.583678 3.971609 -4.905767 -0.000000 0.000000 -0.000000 -21.996863 -7.011814 -1.445554 51.899261 -4.302167 0.519812 -3.021420 1.857729 -10.293934 -17.257707 -5.310777 11.040838 -0.000001 0.000000 -0.000000 
3.565119 96.786156 90.913437 1.469295 2.677604 -1.355265 0.175632 -0.333841 -0.029275 0.350469 -0.686916 -0.361114 0.350471 -0.686917 -0.361113 1.089266 0.141715 0.119016 1.089267 0.141714 0.119017 -0.000000 -0.000000 -0.000000 0.247426 -16.370901 -16.461953 2.641685 10.773554 -54.875649 18.465054 -36.299160 -0.103175 0.000001 0.000001 0.000000 1.778665 5.347359 18.273295 3.924464 -8.287990 62.514590 15.328422 20.522319 -4.361938 -0.000000 -0.000001 -0.000000 -3.907725 9.728688 0.825129 16.573136 -13.951680 0.409088 -12.408062 0.116605 4.102329 -5.916032 3.589333 -4.286321 0.000000 0.000000 0.000001 -24.311391 -6.595067 -1.638386 47.963747 -4.612344 0.630614 -4.539173 1.868049 -9.767881 -13.359226 -3.569409 6.989252 -0.000001 0.000001 0.000000 
3.584623 96.636833 93.303543 1.646403 3.462847 -1.041770 0.208038 -0.502953 -0.044853 0.413641 -1.053433 -0.391691 0.413642 -1.053433 -0.391691 1.040256 0.167341 0.116990 1.040257 0.167341 0.116990 0.000000 -0.000000 0.000000 0.283934 -16.503829 -15.965420 2.133429 9.823187 -54.020174 18.488933 -39.959342 0.045808 0.000001 0.000000 0.000000 1.782368 5.136716 19.023798 4.603932 -9.428049 61.786431 15.140482 18.894996 -3.289589 0.000001 -0.000001 0.000000 -1.577132 9.992920 0.479917 14.987506 -15.337509 0.515737 -13.362070 0.058350 4.653917 -5.824282 3.983901 -4.906949 0.000000 0.000000 -0.000000 -26.201178 -6.211239 -1.954773 43.225388 -4.724604 0.512253 -6.007554 1.804132 -9.331402 -7.636438 -2.278778 2.407269 -0.000000 0.000000 -0.000000 
3.597079 96.328529 95.893318 1.775064 4.084846 -0.665043 0.206288 -0.632886 -0.083940 0.408655 -1.337503 -0.453790 0.408655 -1.337503 -0.453790 1.131629 0.186112 0.122441 1.131629 0.186111 0.122442 0.000000 0.000000 -0.000000 0.462808 -15.979258 -15.343636 1.292524 8.229553 -53.259421 18.494464 -43.057045 0.082768 -0.000000 0.000001 -0.000001 1.662512 5.443209 20.156984 6.514221 -11.430072 60.965217 15.282929 19.326819 -2.922367 -0.000002 0.000000 0.000001 0.908032 10.584777 0.353754 13.323158 -16.725122 0.166339 -14.279091 0.066280 4.855421 -5.858467 3.988354 -4.910751 0.000000 0.000000 -0.000000 -27.531278 -5.665097 -2.298075 38.449420 -4.826962 0.289630 -7.535842 1.802500 -8.968492 -10.078930 -2.557027 2.180642 0.000000 0.000000 0.000001 
3.609733 95.885651 98.412521 1.848510 4.547902 -0.273083 0.255095 -0.728338 -0.096638 0.505694 -1.553318 -0.439096 0.505695 -1.553318 -0.439096 1.072324 0.225469 0.000178 1.072337 0.225470 0.000176 0.000000 -0.000000 -0.000000 0.374145 -16.390644 -15.432184 0.762776 7.559303 -52.011819 18.385029 -46.775468 0.509938 -0.000002 0.000001 -0.000001 1.705110 5.246300 20.125569 7.366662 -12.252878 60.664538 15.312022 18.147036 -1.457625 0.000000 0.000000 0.000001 3.174157 11.154946 0.263277 12.188678 -17.968691 -0.203307 -15.481139 0.071053 5.110655 -5.896246 3.993364 -4.914998 0.000000 0.000000 -0.000000 -28.784395 -5.211517 -2.648005 33.424528 -4.691855 -0.122125 -8.934669 1.763260 -8.632608 -10.276720 -2.286522 2.343673 0.000001 -0.000000 0.000001 
3.628700 95.336174 100.989700 1.874555 4.888903 0.100204 0.304095 -0.799160 -0.107768 0.603978 -1.722693 -0.389397 0.603978 -1.722693 -0.389397 1.028946 0.265695 -0.157019 1.028923 0.265695 -0.157017 0.000000 -0.000000 -0.000000 0.286977 -16.834955 -15.451794 -0.021850 6.959619 -50.990026 18.077110 -49.906171 0.838237 0.000001 0.000001 -0.000001 1.781011 4.956437 19.790535 7.739587 -12.328780 60.411835 15.496729 15.797401 0.477483 0.000001 -0.000000 -0.000001 4.834207 11.796030 0.331069 12.539644 -19.182846 -0.543172 -17.144938 0.024364 5.550077 -6.403116 4.010438 -4.886025 0.000000 0.000000 -0.000000 -29.954618 -4.721932 -2.966478 28.434368 -4.603854 -0.608732 -10.485562 1.724331 -8.033365 -10.052149 -1.517400 1.704225 0.000003 0.000000 -0.000000 
3.640533 94.722725 103.660339 1.870493 5.162552 0.436450 0.344809 -0.857553 -0.132695 0.686291 -1.873174 -0.336746 0.686289 -1.873171 -0.336747 1.026912 0.293810 -0.284299 1.026914 0.293811 -0.284299 0.000000 0.000000 -0.000000 0.389538 -16.463032 -15.210625 -1.493785 5.443972 -50.262648 17.640840 -51.742074 0.768194 -0.000002 -0.000002 -0.000001 1.792137 4.847941 20.024694 9.252750 -12.969403 60.228724 16.187161 15.681896 0.918657 0.000002 0.000001 -0.000000 5.690228 12.251905 0.616671 14.747244 -20.151975 -0.843049 -19.117940 -0.099191 6.201663 -7.771242 4.040987 -4.798935 0.000001 0.000000 -0.000000 -31.609829 -4.177154 -3.558885 24.515989 -4.590011 -1.084965 -11.555994 1.425178 -5.205077 -12.033931 -1.773619 1.678415 0.000003 -0.000000 0.000000 
3.627115 94.112534 106.253136 1.856562 5.428458 0.728451 0.397076 -0.919030 -0.169015 0.792119 -2.032923 -0.290263 0.792119 -2.032923 -0.290264 1.005993 0.307756 -0.365423 1.006014 0.307756 -0.365423 -0.000000 0.000000 0.000000 0.378469 -16.477613 -15.281821 -2.568650 4.221781 -49.241016 17.402928 -53.694890 1.299401 0.000002 0.000004 -0.000002 1.789176 4.787648 20.360241 10.577286 -13.527295 60.070264 17.100921 15.495213 1.200470 -0.000001 0.000000 0.000000 6.066064 12.702413 1.068313 17.773566 -21.092435 -1.097492 -20.778892 -0.253458 6.912932 -9.890323 4.067919 -4.666357 0.000001 -0.000000 0.000000 -32.602002 -3.921679 -3.886383 19.896215 -4.594533 -1.522055 -13.165081 1.137447 -3.339476 -12.077059 -1.879083 0.936154 0.000002 0.000000 0.000000 
3.600833 93.480759 108.858490 1.850264 5.731744 0.976073 0.438565 -0.991644 -0.192271 0.876970 -2.217981 -0.219545 0.876970 -2.217980 -0.219545 0.981919 0.323211 -0.462008 0.981919 0.323211 -0.462007 -0.000000 -0.000000 0.000000 0.302888 -16.776857 -15.426986 -3.502865 3.414619 -48.292849 17.232079 -55.401505 2.017012 -0.000002 0.000001 -0.000001 1.832760 4.585063 20.327275 11.495485 -13.589072 60.132084 18.097471 14.563097 1.722614 -0.000000 -0.000001 -0.000000 6.240132 12.809371 1.574811 21.169743 -21.704803 -1.272384 -22.072945 -0.419129 7.635374 -12.653439 4.139393 -4.566145 0.000000 0.000000 -0.000000 -32.453917 -4.092802 -3.959753 14.084254 -3.954160 -1.754770 -15.007008 0.953423 -3.038787 -11.938058 -1.791443 0.209160 -0.000001 0.000000 -0.000000 
3.569324 92.735313 111.623260 1.863335 6.086686 1.164282 0.452884 -1.068728 -0.174091 0.907722 -2.432155 -0.113329 0.907722 -2.432155 -0.113329 0.894457 0.347448 -0.596133 0.894463 0.347449 -0.596134 0.000000 0.000000 -0.000000 0.421356 -16.378358 -15.105249 -4.959998 2.092803 -48.024187 16.845272 -56.148943 2.103967 0.000003 0.000002 -0.000002 1.806656 4.732777 20.208988 13.660850 -14.395576 60.809072 19.095122 15.817697 1.095867 0.000000 -0.000000 -0.000001 6.342767 12.353477 2.093586 24.901219 -21.744879 -1.383378 -23.179630 -0.568389 8.260279 -16.155382 4.252907 -4.447860 0.000000 0.000000 -0.000000 -33.696383 -4.235548 -4.362842 12.260619 -3.072016 -1.800608 -17.179121 0.229284 -0.998092 -14.283222 -1.618365 1.654864 0.000000 -0.000000 0.000000 
3.515471 92.079399 114.280266 1.900575 6.500972 1.304677 0.480102 -1.158820 -0.142302 0.964530 -2.672388 -0.000695 0.964530 -2.672388 -0.000696 0.725192 0.373451 -0.726641 0.725192 0.373451 -0.726641 -0.000000 -0.000000 -0.000000 0.301889 -16.743534 -15.490582 -6.034989 1.751921 -47.012066 16.659883 -57.101310 2.426795 0.000000 0.000001 -0.000001 1.894160 4.381128 19.849424 14.689012 -14.411108 61.272971 20.093329 15.744634 1.323228 0.000002 -0.000000 0.000001 6.519740 11.915956 2.467713 28.226949 -21.628690 -1.111621 -23.527379 -0.602724 8.491765 -20.213952 4.388758 -4.306607 0.000001 -0.000000 0.000000 -34.560645 -4.318216 -4.665216 10.936151 -2.251195 -1.822985 -18.227649 -0.437811 0.878559 -13.518297 -0.890669 1.707931 0.000001 0.000000 0.000000 
3.427748 91.413712 117.025055 1.963313 6.942416 1.365271 0.484024 -1.244973 -0.064708 0.974539 -2.920594 0.142779 0.974540 -2.920596 0.142779 0.492527 0.410218 -0.889430 0.492527 0.410219 -0.889431 0.000001 -0.000000 0.000000 0.145675 -17.293122 -15.855140 -6.894001 1.690034 -46.167513 16.461550 -57.657841 2.660515 -0.000000 0.000000 -0.000000 2.006427 3.816367 19.922373 16.692246 -15.358631 61.487344 21.416698 18.417475 0.387141 -0.000001 0.000000 -0.000000 6.854368 11.383713 2.689682 31.332642 -21.136388 -0.402839 -23.516685 -0.539581 8.390501 -24.321849 4.475165 -4.184135 0.000000 0.000000 0.000000 -36.287122 -4.237837 -4.873505 13.078131 -1.543703 -1.828301 -19.603413 -0.873057 2.024178 -12.225331 -0.417633 0.642051 0.000000 -0.000000 0.000000 
3.261893 90.752930 119.970772 2.052845 7.376107 1.324528 0.437929 -1.322379 0.015318 0.882758 -3.154300 0.227957 0.882756 -3.154300 0.227958 0.301996 0.419932 -0.930688 0.301996 0.419932 -0.930688 0.000001 -0.000000 -0.000000 0.236475 -16.973408 -15.652886 -8.003411 1.105985 -45.936024 16.268677 -57.580721 2.389094 -0.000000 0.000003 -0.000003 2.018326 3.721124 20.122316 18.712154 -16.599564 61.833306 22.263893 20.675901 -0.283909 -0.000000 -0.000001 0.000000 7.965556 11.611346 2.980242 32.964142 -21.152246 0.677664 -23.185758 -0.415560 7.954583 -27.324524 4.466239 -4.168380 0.000000 0.000000 -0.000000 -38.466867 -4.116935 -4.925286 17.787583 -0.938268 -1.764035 -20.727329 -0.949553 2.184988 -13.080407 -0.123895 0.248005 -0.000002 0.000000 0.000000 
3.043330 90.212555 122.964142 2.174133 7.759463 1.184165 0.377803 -1.388910 0.112437 0.762843 -3.346923 0.336048 0.762843 -3.346925 0.336048 0.101637 0.431329 -0.978307 0.101638 0.431329 -0.978307 0.000000 -0.000000 0.000000 0.175864 -17.248932 -15.705434 -8.432727 1.308436 -45.501149 16.113328 -57.832188 2.429419 0.000001 -0.000001 -0.000002 2.064900 3.491308 20.127275 19.915611 -17.301313 62.147044 22.832948 21.556098 -0.627399 -0.000002 -0.000000 -0.000000 9.401391 12.189267 3.373024 33.557570 -21.366278 1.824135 -22.202780 -0.288533 7.309916 -28.647109 4.353097 -4.304926 0.000000 0.000000 0.000000 -40.265256 -3.974041 -4.648062 22.676255 -0.761714 -1.784082 -20.092084 -0.508587 1.304461 -16.187321 0.176544 -0.285228 0.000003 -0.000000 0.000000 
